<svg id="Layer_1" data-name="Layer 1" xmlns="http://www.w3.org/2000/svg" xmlns:xlink="http://www.w3.org/1999/xlink" viewBox="0 0 1000 1000"><defs><style>.cls-1{font-size:82.99px;font-family:Impact;}.cls-2{fill:url(#linear-gradient);}.cls-3,.cls-4{font-size:68px;font-family:Montserrat-Regular, Montserrat;letter-spacing:0.1em;}.cls-4,.cls-56{fill:#f36f27;}.cls-5{fill:url(#linear-gradient-15);}.cls-6{fill:url(#linear-gradient-16);}.cls-7{fill:url(#linear-gradient-17);}.cls-8{fill:url(#linear-gradient-18);}.cls-9{fill:url(#linear-gradient-19);}.cls-10{fill:url(#linear-gradient-20);}.cls-11{fill:url(#linear-gradient-21);}.cls-12{fill:url(#linear-gradient-22);}.cls-13{fill:url(#linear-gradient-23);}.cls-14{fill:url(#linear-gradient-24);}.cls-15{fill:url(#linear-gradient-25);}.cls-16{fill:url(#linear-gradient-26);}.cls-17{fill:url(#linear-gradient-27);}.cls-18{fill:url(#linear-gradient-28);}.cls-19{fill:url(#linear-gradient-29);}.cls-20{fill:url(#linear-gradient-30);}.cls-21{fill:url(#linear-gradient-31);}.cls-22{fill:url(#linear-gradient-32);}.cls-23{fill:url(#linear-gradient-33);}.cls-24{fill:url(#linear-gradient-34);}.cls-25{fill:url(#linear-gradient-35);}.cls-26{fill:url(#linear-gradient-36);}.cls-27{fill:url(#linear-gradient-37);}.cls-28{fill:url(#linear-gradient-38);}.cls-29{fill:url(#linear-gradient-39);}.cls-30{fill:url(#linear-gradient-40);}.cls-31{fill:url(#linear-gradient-41);}.cls-32{fill:url(#linear-gradient-42);}.cls-33{fill:url(#linear-gradient-43);}.cls-34{fill:url(#linear-gradient-44);}.cls-35{fill:url(#linear-gradient-45);}.cls-36{fill:url(#linear-gradient-46);}.cls-37{fill:url(#linear-gradient-47);}.cls-38{fill:url(#linear-gradient-48);}.cls-39{fill:url(#linear-gradient-49);}.cls-40{fill:url(#linear-gradient-50);}.cls-41{fill:url(#linear-gradient-51);}.cls-42{fill:url(#linear-gradient-52);}.cls-43{fill:url(#linear-gradient-53);}.cls-44{fill:url(#linear-gradient-54);}.cls-45{fill:url(#linear-gradient-55);}.cls-46{fill:url(#linear-gradient-56);}.cls-47{fill:url(#linear-gradient-57);}.cls-48{fill:url(#linear-gradient-58);}.cls-49{fill:url(#linear-gradient-59);}.cls-50{fill:url(#linear-gradient-60);}.cls-51{fill:url(#linear-gradient-61);}.cls-52{fill:url(#linear-gradient-62);}.cls-53{fill:url(#linear-gradient-63);}.cls-54{fill:url(#linear-gradient-64);}.cls-55{fill:url(#linear-gradient-65);}.cls-57{fill:url(#linear-gradient-66);}</style><linearGradient id="linear-gradient" x1="602.92" y1="544.9" x2="602.92" y2="493.07" gradientUnits="userSpaceOnUse"><stop offset="0" stop-color="#1f4f9f"/><stop offset="1" stop-color="#4388c8"/></linearGradient><linearGradient id="linear-gradient-15" x1="175.88" y1="465" x2="201.97" y2="465" gradientTransform="translate(-2.71 43.44) rotate(-0.99)" gradientUnits="userSpaceOnUse"><stop offset="0" stop-color="#2452a2"/><stop offset="0" stop-color="#f17126"/><stop offset="1" stop-color="#f6d422"/></linearGradient><linearGradient id="linear-gradient-16" x1="188.32" y1="450.5" x2="189.49" y2="450.5" xlink:href="#linear-gradient-15"/><linearGradient id="linear-gradient-17" x1="185.57" y1="454.12" x2="186.81" y2="454.12" xlink:href="#linear-gradient-15"/><linearGradient id="linear-gradient-18" x1="180.08" y1="451.84" x2="184.2" y2="451.84" xlink:href="#linear-gradient-15"/><linearGradient id="linear-gradient-19" x1="179.3" y1="456.26" x2="181.74" y2="456.26" xlink:href="#linear-gradient-15"/><linearGradient id="linear-gradient-20" x1="172.31" y1="455.5" x2="179.48" y2="455.5" xlink:href="#linear-gradient-15"/><linearGradient id="linear-gradient-21" x1="174.19" y1="460.2" x2="177.52" y2="460.2" xlink:href="#linear-gradient-15"/><linearGradient id="linear-gradient-22" x1="166.55" y1="461.04" x2="175.9" y2="461.04" xlink:href="#linear-gradient-15"/><linearGradient id="linear-gradient-23" x1="170.86" y1="465.45" x2="174.68" y2="465.45" xlink:href="#linear-gradient-15"/><linearGradient id="linear-gradient-24" x1="163.48" y1="467.79" x2="173.89" y2="467.79" xlink:href="#linear-gradient-15"/><linearGradient id="linear-gradient-25" x1="204.25" y1="471.08" x2="208.11" y2="471.08" xlink:href="#linear-gradient-15"/><linearGradient id="linear-gradient-26" x1="203.92" y1="467.79" x2="214.32" y2="467.79" xlink:href="#linear-gradient-15"/><linearGradient id="linear-gradient-27" x1="203.13" y1="465.45" x2="206.95" y2="465.45" xlink:href="#linear-gradient-15"/><linearGradient id="linear-gradient-28" x1="201.9" y1="461.04" x2="211.26" y2="461.04" xlink:href="#linear-gradient-15"/><linearGradient id="linear-gradient-29" x1="200.28" y1="460.2" x2="203.61" y2="460.2" xlink:href="#linear-gradient-15"/><linearGradient id="linear-gradient-30" x1="198.32" y1="455.5" x2="205.49" y2="455.5" xlink:href="#linear-gradient-15"/><linearGradient id="linear-gradient-31" x1="196.07" y1="456.26" x2="198.5" y2="456.26" xlink:href="#linear-gradient-15"/><linearGradient id="linear-gradient-32" x1="193.6" y1="451.84" x2="197.73" y2="451.84" xlink:href="#linear-gradient-15"/><linearGradient id="linear-gradient-33" x1="190.99" y1="454.12" x2="192.24" y2="454.12" xlink:href="#linear-gradient-15"/><linearGradient id="linear-gradient-34" x1="254.4" y1="382.15" x2="323.81" y2="416.96" gradientTransform="translate(-206.5 215.38) rotate(-17.31)" gradientUnits="userSpaceOnUse"><stop offset="0" stop-color="#2451a2"/><stop offset="0.54" stop-color="#2554a3"/><stop offset="0.97" stop-color="#478dcb"/></linearGradient><linearGradient id="linear-gradient-35" x1="253.92" y1="383.11" x2="323.32" y2="417.92" xlink:href="#linear-gradient-34"/><linearGradient id="linear-gradient-36" x1="252.03" y1="386.88" x2="321.44" y2="421.69" xlink:href="#linear-gradient-34"/><linearGradient id="linear-gradient-37" x1="252.87" y1="385.2" x2="322.28" y2="420.01" xlink:href="#linear-gradient-34"/><linearGradient id="linear-gradient-38" x1="250.52" y1="389.88" x2="319.93" y2="424.69" xlink:href="#linear-gradient-34"/><linearGradient id="linear-gradient-39" x1="250.95" y1="389.04" x2="320.35" y2="423.85" xlink:href="#linear-gradient-34"/><linearGradient id="linear-gradient-40" x1="251.68" y1="387.57" x2="321.09" y2="422.38" xlink:href="#linear-gradient-34"/><linearGradient id="linear-gradient-41" x1="252.99" y1="384.96" x2="322.4" y2="419.77" xlink:href="#linear-gradient-34"/><linearGradient id="linear-gradient-42" x1="251.84" y1="387.25" x2="321.25" y2="422.06" xlink:href="#linear-gradient-34"/><linearGradient id="linear-gradient-43" x1="252.24" y1="386.45" x2="321.65" y2="421.26" xlink:href="#linear-gradient-34"/><linearGradient id="linear-gradient-44" x1="254.45" y1="382.06" x2="323.85" y2="416.87" xlink:href="#linear-gradient-34"/><linearGradient id="linear-gradient-45" x1="253.94" y1="383.08" x2="323.34" y2="417.89" xlink:href="#linear-gradient-34"/><linearGradient id="linear-gradient-46" x1="250.04" y1="390.84" x2="319.45" y2="425.65" xlink:href="#linear-gradient-34"/><linearGradient id="linear-gradient-47" x1="249.24" y1="392.44" x2="318.65" y2="427.25" xlink:href="#linear-gradient-34"/><linearGradient id="linear-gradient-48" x1="250.27" y1="390.38" x2="319.68" y2="425.19" xlink:href="#linear-gradient-34"/><linearGradient id="linear-gradient-49" x1="249.45" y1="392.01" x2="318.86" y2="426.82" xlink:href="#linear-gradient-34"/><linearGradient id="linear-gradient-50" x1="250.46" y1="390" x2="319.87" y2="424.81" xlink:href="#linear-gradient-34"/><linearGradient id="linear-gradient-51" x1="251.48" y1="387.97" x2="320.89" y2="422.78" xlink:href="#linear-gradient-34"/><linearGradient id="linear-gradient-52" x1="247.14" y1="396.62" x2="316.55" y2="431.43" xlink:href="#linear-gradient-34"/><linearGradient id="linear-gradient-53" x1="251.22" y1="388.49" x2="320.63" y2="423.3" xlink:href="#linear-gradient-34"/><linearGradient id="linear-gradient-54" x1="249.07" y1="392.77" x2="318.48" y2="427.58" xlink:href="#linear-gradient-34"/><linearGradient id="linear-gradient-55" x1="247.09" y1="396.72" x2="316.5" y2="431.53" xlink:href="#linear-gradient-34"/><linearGradient id="linear-gradient-56" x1="249.18" y1="392.56" x2="318.58" y2="427.37" xlink:href="#linear-gradient-34"/><linearGradient id="linear-gradient-57" x1="248.41" y1="394.1" x2="317.82" y2="428.91" xlink:href="#linear-gradient-34"/><linearGradient id="linear-gradient-58" x1="244.11" y1="402.68" x2="313.51" y2="437.49" xlink:href="#linear-gradient-34"/><linearGradient id="linear-gradient-59" x1="237.74" y1="415.37" x2="307.15" y2="450.18" xlink:href="#linear-gradient-34"/><linearGradient id="linear-gradient-60" x1="245.3" y1="400.31" x2="314.7" y2="435.12" xlink:href="#linear-gradient-34"/><linearGradient id="linear-gradient-61" x1="247.96" y1="395" x2="317.36" y2="429.8" xlink:href="#linear-gradient-34"/><linearGradient id="linear-gradient-62" x1="243.08" y1="404.72" x2="312.49" y2="439.53" xlink:href="#linear-gradient-34"/><linearGradient id="linear-gradient-63" x1="246.24" y1="398.43" x2="315.64" y2="433.24" xlink:href="#linear-gradient-34"/><linearGradient id="linear-gradient-64" x1="241.65" y1="407.58" x2="311.05" y2="442.39" xlink:href="#linear-gradient-34"/><linearGradient id="linear-gradient-65" x1="240.53" y1="409.82" x2="309.93" y2="444.63" xlink:href="#linear-gradient-34"/><linearGradient id="linear-gradient-66" x1="169.48" y1="496.11" x2="295" y2="592.9" xlink:href="#linear-gradient"/></defs><title>R power solutions logo</title><text class="cls-1" transform="translate(297.7 554.47)">POWER SOLUTIONS</text><path class="cls-2" d="M301.1,488.87h17.18A40.35,40.35,0,0,1,329,490a11.92,11.92,0,0,1,5.63,3.16,10.9,10.9,0,0,1,2.56,5,45.46,45.46,0,0,1,.66,9.1v5.72c0,4.18-.43,7.24-1.29,9.15a8.9,8.9,0,0,1-4.76,4.42,22.47,22.47,0,0,1-9.06,1.54h-4.58v26.42H301.1Zm17.06,11.22v16.7c.49,0,.9,0,1.26,0a4,4,0,0,0,3.26-1.16c.61-.77.91-2.37.91-4.8v-5.39q0-3.36-1-4.38C321.83,500.43,320.38,500.09,318.16,500.09Z"/><path class="cls-2" d="M381.74,527.28a139.62,139.62,0,0,1-.47,14A15.65,15.65,0,0,1,371.73,554a24.18,24.18,0,0,1-9.72,1.82,24.7,24.7,0,0,1-9.47-1.72,15.79,15.79,0,0,1-9.78-12.67,136.34,136.34,0,0,1-.49-14.18V516.06q0-9.9.47-14a15.7,15.7,0,0,1,9.54-12.75,24.2,24.2,0,0,1,9.73-1.82,24.69,24.69,0,0,1,9.46,1.72,15.64,15.64,0,0,1,6.75,5.17,15.45,15.45,0,0,1,3,7.49,136.57,136.57,0,0,1,.49,14.19Zm-17.06-21.56a20.16,20.16,0,0,0-.51-5.85,2,2,0,0,0-2.08-1.28,2.35,2.35,0,0,0-2,1c-.47.69-.71,2.73-.71,6.1v30.64q0,5.71.47,7a2,2,0,0,0,2.17,1.34,2.09,2.09,0,0,0,2.22-1.54c.33-1,.49-3.47.49-7.34Z"/><path class="cls-2" d="M452.33,488.87l-7.59,65.6h-21.3q-2.93-15.12-5.17-34.4-1,8.26-4.76,34.4H392.34l-7.64-65.6h16.57l1.81,22.89,1.74,22.13q.94-17.19,4.72-45h17.71q.36,2.86,1.86,21.63l1.89,25q1.46-23.83,4.76-46.6Z"/><path class="cls-2" d="M455.7,488.87h28.44V502H472.76v12.44h10.65v12.49H472.76v14.42h12.52v13.13H455.7Z"/><path class="cls-2" d="M490.18,488.87h12.08q12.08,0,16.35.93a11.27,11.27,0,0,1,7,4.76q2.68,3.82,2.69,12.22,0,7.65-1.9,10.29t-7.5,3.16q5.07,1.26,6.81,3.36a10.23,10.23,0,0,1,2.17,3.87c.28,1.18.42,4.41.42,9.71v17.3H512.43v-21.8c0-3.51-.28-5.69-.83-6.52s-2-1.26-4.36-1.26v29.58H490.18Zm17.06,11.22v14.59a7.47,7.47,0,0,0,4-.79q1.15-.79,1.16-5.13v-3.6c0-2.08-.37-3.45-1.12-4.1S509.21,500.09,507.24,500.09Z"/><path class="cls-2" d="M585.65,508.72H569.81v-4.86c0-2.27-.2-3.72-.61-4.34a2.24,2.24,0,0,0-2-.93,2.59,2.59,0,0,0-2.33,1.26,7.37,7.37,0,0,0-.79,3.81,10.85,10.85,0,0,0,.89,4.95c.57,1.11,2.17,2.44,4.82,4q11.4,6.76,14.35,11.09t3,14q0,7-1.64,10.33c-1.09,2.21-3.21,4.07-6.34,5.57a25.09,25.09,0,0,1-10.94,2.25,24.53,24.53,0,0,1-11.69-2.59q-4.85-2.6-6.35-6.61t-1.5-11.39V531h15.85v8c0,2.46.22,4,.67,4.74a2.56,2.56,0,0,0,2.37,1.06,2.78,2.78,0,0,0,2.53-1.34,7.68,7.68,0,0,0,.83-4c0-3.87-.53-6.39-1.58-7.58s-3.74-3.17-8-6a79,79,0,0,1-8.43-6.12,14.21,14.21,0,0,1-3.42-5.26,23.14,23.14,0,0,1-1.36-8.6q0-7.53,1.92-11a13,13,0,0,1,6.22-5.45,24.84,24.84,0,0,1,10.38-2,27,27,0,0,1,11.32,2.14q4.68,2.16,6.2,5.41t1.52,11.09Z"/><path class="cls-2" d="M631.4,527.28q0,9.88-.46,14A15.69,15.69,0,0,1,621.39,554a24.18,24.18,0,0,1-9.72,1.82,24.65,24.65,0,0,1-9.46-1.72,15.78,15.78,0,0,1-9.79-12.67,139.29,139.29,0,0,1-.49-14.18V516.06q0-9.9.47-14a15.7,15.7,0,0,1,9.54-12.75,24.23,24.23,0,0,1,9.73-1.82,24.69,24.69,0,0,1,9.46,1.72,15.78,15.78,0,0,1,9.79,12.66,140.39,140.39,0,0,1,.48,14.19Zm-17.06-21.56a20.67,20.67,0,0,0-.5-5.85,2,2,0,0,0-2.09-1.28,2.35,2.35,0,0,0-2,1c-.47.69-.71,2.73-.71,6.1v30.64q0,5.71.47,7a2,2,0,0,0,2.17,1.34,2.11,2.11,0,0,0,2.23-1.54,32.91,32.91,0,0,0,.48-7.34Z"/><path class="cls-2" d="M654.82,488.87v52.47H665.2v13.13H637.76v-65.6Z"/><path class="cls-2" d="M708.11,488.87v43.84a77.24,77.24,0,0,1-.48,10.48,14.35,14.35,0,0,1-2.88,6.2,15.06,15.06,0,0,1-6.3,4.82,23.8,23.8,0,0,1-9.22,1.64,25.9,25.9,0,0,1-10.38-2,15.55,15.55,0,0,1-6.72-5.06,14,14,0,0,1-2.64-6.59q-.4-3.46-.4-14.56V488.87h17.06v49.19a19,19,0,0,0,.47,5.49,1.82,1.82,0,0,0,1.88,1.2,2,2,0,0,0,2.09-1.32,24.67,24.67,0,0,0,.46-6.22V488.87Z"/><path class="cls-2" d="M749.08,488.87V502H739v52.48H721.89V502H711.8V488.87Z"/><path class="cls-2" d="M770,488.87v65.6H753v-65.6Z"/><path class="cls-2" d="M815.86,527.28q0,9.88-.46,14A15.69,15.69,0,0,1,805.85,554a24.18,24.18,0,0,1-9.72,1.82,24.65,24.65,0,0,1-9.46-1.72,15.78,15.78,0,0,1-9.79-12.67,139.29,139.29,0,0,1-.49-14.18V516.06q0-9.9.47-14a15.7,15.7,0,0,1,9.54-12.75,24.27,24.27,0,0,1,9.73-1.82,24.69,24.69,0,0,1,9.46,1.72,15.78,15.78,0,0,1,9.79,12.66,140.39,140.39,0,0,1,.48,14.19ZM798.8,505.72a20.67,20.67,0,0,0-.5-5.85,2,2,0,0,0-2.09-1.28,2.36,2.36,0,0,0-2.05,1c-.47.69-.71,2.73-.71,6.1v30.64q0,5.71.47,7a2,2,0,0,0,2.17,1.34,2.11,2.11,0,0,0,2.23-1.54,32.91,32.91,0,0,0,.48-7.34Z"/><path class="cls-2" d="M860.32,488.87v65.6h-15l-8.87-29.82v29.82H822.23v-65.6h14.26l9.56,29.54V488.87Z"/><path class="cls-2" d="M903.31,508.72H887.47v-4.86c0-2.27-.21-3.72-.61-4.34a2.24,2.24,0,0,0-2-.93,2.59,2.59,0,0,0-2.33,1.26,7.37,7.37,0,0,0-.79,3.81,10.85,10.85,0,0,0,.89,4.95c.57,1.11,2.17,2.44,4.82,4q11.4,6.76,14.35,11.09t3,14q0,7-1.64,10.33t-6.34,5.57a25.09,25.09,0,0,1-10.94,2.25,24.6,24.6,0,0,1-11.7-2.59q-4.83-2.6-6.34-6.61t-1.5-11.39V531h15.85v8c0,2.46.22,4,.67,4.74a2.56,2.56,0,0,0,2.37,1.06,2.78,2.78,0,0,0,2.53-1.34,7.68,7.68,0,0,0,.83-4c0-3.87-.53-6.39-1.58-7.58s-3.74-3.17-8-6a79,79,0,0,1-8.43-6.12,14.34,14.34,0,0,1-3.43-5.26,23.36,23.36,0,0,1-1.35-8.6q0-7.53,1.92-11a13,13,0,0,1,6.22-5.45,24.84,24.84,0,0,1,10.38-2,27,27,0,0,1,11.32,2.14q4.68,2.16,6.2,5.41t1.52,11.09Z"/><text class="cls-3" transform="translate(297.7 633.3)">Sales &amp; Service</text><text class="cls-4" transform="translate(297.7 633.3)">Sales &amp; Service</text><path class="cls-5" d="M207.39,511c0,.31,0,.62,0,.92A81.8,81.8,0,0,0,197,510.59a89.29,89.29,0,0,0-15.7-.43,13.08,13.08,0,0,1,26.11.79Z"/><polygon class="cls-6" points="193.47 495.84 193.87 485.37 194.64 495.82 193.47 495.84"/><polygon class="cls-7" points="190.82 496.22 190.66 492.32 191.97 495.99 190.82 496.22"/><polygon class="cls-8" points="188.27 497.05 185.07 487.08 189.37 496.63 188.27 497.05"/><polygon class="cls-9" points="185.91 498.32 184.43 494.71 186.92 497.71 185.91 498.32"/><polygon class="cls-10" points="183.81 499.97 177.39 491.69 184.69 499.2 183.81 499.97"/><polygon class="cls-11" points="182.02 501.97 179.4 499.09 182.76 501.06 182.02 501.97"/><polygon class="cls-12" points="180.61 504.24 171.75 498.66 181.18 503.22 180.61 504.24"/><polygon class="cls-13" points="179.62 506.73 176.16 504.92 180 505.62 179.62 506.73"/><polygon class="cls-14" points="179.07 509.35 168.83 507.13 179.25 508.19 179.07 509.35"/><polygon class="cls-15" points="209.66 510.32 213.52 510.84 209.68 511.5 209.66 510.32"/><polygon class="cls-16" points="209.28 507.67 219.66 506.25 209.5 508.82 209.28 507.67"/><polygon class="cls-17" points="208.44 505.13 212.25 504.3 208.86 506.22 208.44 505.13"/><polygon class="cls-18" points="207.18 502.77 216.45 497.88 207.78 503.77 207.18 502.77"/><polygon class="cls-19" points="205.52 500.66 208.81 498.58 206.29 501.55 205.52 500.66"/><polygon class="cls-20" points="203.53 498.88 210.57 491.12 204.44 499.62 203.53 498.88"/><polygon class="cls-21" points="201.25 497.47 203.63 494.38 202.28 498.04 201.25 497.47"/><polygon class="cls-22" points="198.76 496.47 202.73 486.77 199.87 496.85 198.76 496.47"/><polygon class="cls-23" points="196.14 495.92 197.33 492.21 197.3 496.11 196.14 495.92"/><path class="cls-24" d="M201.92,514.51c.61-1.06,1.21-2.13,1.81-3.2,3.43.48,6.91,1.11,10.44,1.92l-2.69,3.47Q206.65,515.38,201.92,514.51Z"/><path class="cls-25" d="M212.88,517.09l2.83-3.5q5.31,1.27,10.74,3.09l-3.84,3.68Q217.72,518.49,212.88,517.09Z"/><path class="cls-26" d="M189.53,518.19l1.46-4.35c3,.28,6,.69,9.13,1.23l-3,5.61A76.5,76.5,0,0,0,189.53,518.19Z"/><path class="cls-27" d="M224,520.91l4-3.69q5.44,1.89,10.95,4.37l-5.12,3.74Q228.93,522.85,224,520.91Z"/><path class="cls-28" d="M206.48,525c.45-.57.91-1.14,1.37-1.7l4.36-5.41q4.74,1.4,9.55,3.26l-3.44,3.29-5,4.8A76.72,76.72,0,0,0,206.48,525Z"/><path class="cls-29" d="M170.24,515.56c-2.61,0-5.24.11-7.86.36-.13-.22-.26-.44-.38-.66,2.57-.51,5.21-.92,7.89-1.22C170,514.55,170.12,515.06,170.24,515.56Z"/><path class="cls-30" d="M169.34,511.66c.14.6.27,1.2.41,1.8-2.73.33-5.4.78-8,1.32l-.78-1.37C163.67,512.72,166.47,512.13,169.34,511.66Z"/><path class="cls-31" d="M179.77,510.43c-.05.77-.1,1.54-.14,2.3q-4.41.12-8.65.58l-.36-1.86Q175.09,510.76,179.77,510.43Z"/><path class="cls-32" d="M179.42,516.18a76.26,76.26,0,0,0-8-.6c-.11-.56-.21-1.11-.32-1.67q4.17-.42,8.5-.5C179.53,514.34,179.48,515.26,179.42,516.18Z"/><path class="cls-33" d="M188.42,517.9a74.63,74.63,0,0,0-7.85-1.56c.09-1,.19-2,.28-2.94,2.89,0,5.84.09,8.83.33Z"/><path class="cls-34" d="M191.24,513.08c.31-.94.63-1.88.94-2.81,3.29.13,6.65.41,10.06.84-.56,1-1.12,2.11-1.69,3.16C197.41,513.73,194.3,513.34,191.24,513.08Z"/><path class="cls-35" d="M180.91,512.71c.07-.79.14-1.58.22-2.36,3.14-.18,6.35-.23,9.62-.13l-.84,2.76Q185.34,512.65,180.91,512.71Z"/><path class="cls-36" d="M186.92,522.81a49.67,49.67,0,0,0-6.54-2.8l-.14,0,.27-2.94a77,77,0,0,1,7.68,1.62l-.68,2.24C187.31,521.52,187.12,522.17,186.92,522.81Z"/><path class="cls-37" d="M187.83,523.29c.26-.76.51-1.52.76-2.27l.69-2.08a74.51,74.51,0,0,1,7.42,2.53l-.28.52-2.72,5.08A47.08,47.08,0,0,0,187.83,523.29Z"/><path class="cls-38" d="M170.73,517.66a57.17,57.17,0,0,0-7.71-.6l-.38-.67a74.2,74.2,0,0,1,7.73-.25Z"/><path class="cls-39" d="M171.07,519.15l.21.89a50.59,50.59,0,0,0-7.22-1.13c-.25-.46-.51-.92-.77-1.37a54.88,54.88,0,0,1,7.57.7Z"/><path class="cls-40" d="M179.22,519.63a53,53,0,0,0-7.38-1.79c-.11-.56-.21-1.12-.32-1.67a76,76,0,0,1,7.86.68C179.33,517.78,179.27,518.7,179.22,519.63Z"/><path class="cls-41" d="M210.84,517.53l-4.37,5.64-1,1.31c-1.22-.65-2.46-1.27-3.72-1.85s-2.34-1-3.53-1.53l3.27-5.78C204.56,515.91,207.69,516.64,210.84,517.53Z"/><path class="cls-42" d="M234.17,526.84c3.12,1.64,6.24,3.44,9.34,5.43l-16.43,9.23a79.19,79.19,0,0,0-5.6-5.69Z"/><path class="cls-43" d="M235.27,526.06l5.3-3.74q5.35,2.49,10.73,5.58l-6.5,3.65q-4.47-2.85-9-5.2Z"/><path class="cls-44" d="M223.15,521.73q4.68,1.89,9.38,4.26l.24.13L220.6,535a78.61,78.61,0,0,0-6.33-5.08l5.72-5.29Z"/><path class="cls-45" d="M193.27,527.87,191.58,531a38.39,38.39,0,0,0-4.94-4.16c.31-.94.62-1.88.94-2.81A45.13,45.13,0,0,1,193.27,527.87Z"/><path class="cls-46" d="M179.18,520.31c-.05.76-.09,1.53-.14,2.29a46.32,46.32,0,0,0-6.73-2.3l-.21-1.08-.15-.79a53.08,53.08,0,0,1,5.19,1.23C177.83,519.86,178.51,520.08,179.18,520.31Z"/><path class="cls-47" d="M186.69,523.57l-.84,2.75A43,43,0,0,0,180,523c.07-.78.14-1.57.22-2.36A49.17,49.17,0,0,1,186.69,523.57Z"/><path class="cls-48" d="M213.4,530.75a73.47,73.47,0,0,1,6.15,5l-12.17,8.9a38.76,38.76,0,0,0-2.86-5.73Z"/><path class="cls-49" d="M201.31,550.06l5.3-3.74a37.1,37.1,0,0,1,1.47,5.85l-6.5,3.65A30.81,30.81,0,0,0,201.31,550.06Z"/><path class="cls-50" d="M198.8,533.06l-2.69,3.48a35.64,35.64,0,0,0-3.89-4.85l1.81-3.21A43.16,43.16,0,0,1,198.8,533.06Z"/><path class="cls-51" d="M194.49,527.67l3.12-5.53.14-.25.86.37c2.11.91,4.19,1.92,6.22,3q-2.7,3.48-5.39,7A45,45,0,0,0,194.49,527.67Z"/><path class="cls-52" d="M203.17,539l-3.83,3.67a34.12,34.12,0,0,0-2.75-5.38l2.83-3.5A39.21,39.21,0,0,1,203.17,539Z"/><path class="cls-53" d="M200.09,533l5.73-7.11a76.1,76.1,0,0,1,6.65,4.23l-8.44,8.1A41.77,41.77,0,0,0,200.09,533Z"/><path class="cls-54" d="M225.81,542.21l-16.44,9.24a38.16,38.16,0,0,0-1.66-5.91l12.69-9C222.28,538.35,224.09,540.23,225.81,542.21Z"/><path class="cls-55" d="M206.3,545.47l-5.12,3.75a32.1,32.1,0,0,0-1.53-5.75l4-3.69A37.66,37.66,0,0,1,206.3,545.47Z"/><path class="cls-56" d="M125.74,660.77q7.58-33.71,15.29-67.36c1.07-4.74,3.47-17.46,2.71-18.1s-19.38,6.67-28.4,9.14L178.43,456c-1.07,6.15-13.8,88.29-12.43,89.28,1.58,1.14,14.43-4.5,23.59-6.51q-34.15,74.41-68.33,148.83C120.88,687.47,123.77,669.56,125.74,660.77Z"/><path class="cls-57" d="M128.13,501.51a37.53,37.53,0,0,1-3-19.22q2.41-27.19,36.09-44.8T231,426.74q55.62,10.56,51,62.34-2.24,25.07-15.74,40.42t-44.92,28.71q18.87,94.38,38.26,98.07,10.22,1.94,23.74-16.82a52.73,52.73,0,0,1,.05,5.84q-1.23,13.76-13.65,26.48t-22.73,10.76q-26.25-5-46.67-115.16a27.64,27.64,0,0,1-11,.42,8.81,8.81,0,0,1-4.26-2.14q6.9-30.18,23.84-27a25.87,25.87,0,0,1,8.12,3.54q38.39-11,42.1-52.82a36.71,36.71,0,0,0-8.23-27.3q-9.6-11.91-25.86-15-27.6-5.24-54.83,10T128.13,501.51Z"/></svg>